<svg xmlns="http://www.w3.org/2000/svg" viewBox="0 0 720 400" font-family="Noto Serif CJK JP, serif">
<rect width="720" height="400" fill="white"/>
<path d="M480.00,210.00 L479.54,199.54 L478.18,189.16 L475.91,178.94 L472.76,168.96 L468.76,159.29 L463.92,150.00 L458.30,141.17 L451.93,132.87 L444.85,125.15 L437.13,118.07 L428.83,111.70 L420.00,106.08 L410.71,101.24 L401.04,97.24 L391.06,94.09 L380.84,91.82 L370.46,90.46 L360.00,90.00 L349.54,90.46 L339.16,91.82 L328.94,94.09 L318.96,97.24 L309.29,101.24 L300.00,106.08 L291.17,111.70 L282.87,118.07 L275.15,125.15 L268.07,132.87 L261.70,141.17 L256.08,150.00 L251.24,159.29 L247.24,168.96 L244.09,178.94 L241.82,189.16 L240.46,199.54 L240.00,210.00 L240.46,220.46 L241.82,230.84 L244.09,241.06 L247.24,251.04 L251.24,260.71 L256.08,270.00 L261.70,278.83 L268.07,287.13 L275.15,294.85 L282.87,301.93 L291.17,308.30 L300.00,313.92 L309.29,318.76 L318.96,322.76 L328.94,325.91 L339.16,328.18 L349.54,329.54 L360.00,330.00 L370.46,329.54 L380.84,328.18 L391.06,325.91 L401.04,322.76 L410.71,318.76 L420.00,313.92 L428.83,308.30 L437.13,301.93 L444.85,294.85 L451.93,287.13 L458.30,278.83 L463.92,270.00 L468.76,260.71 L472.76,251.04 L475.91,241.06 L478.18,230.84 L479.54,220.46 L480.00,210.00" fill="none" stroke="#CCCCCC" stroke-width="1"/>
<path d="M360.00,210.00 L359.54,199.54 L358.18,189.16 L355.91,178.94 L352.76,168.96 L348.76,159.29 L343.92,150.00 L338.30,141.17 L331.93,132.87 L324.85,125.15 L317.13,118.07 L308.83,111.70 L300.00,106.08 L290.71,101.24 L281.04,97.24 L271.06,94.09 L260.84,91.82 L250.46,90.46 L240.00,90.00 L229.54,90.46 L219.16,91.82 L208.94,94.09 L198.96,97.24 L189.29,101.24 L180.00,106.08 L171.17,111.70 L162.87,118.07 L155.15,125.15 L148.07,132.87 L141.70,141.17 L136.08,150.00 L131.24,159.29 L127.24,168.96 L124.09,178.94 L121.82,189.16 L120.46,199.54 L120.00,210.00 L120.46,220.46 L121.82,230.84 L124.09,241.06 L127.24,251.04 L131.24,260.71 L136.08,270.00 L141.70,278.83 L148.07,287.13 L155.15,294.85 L162.87,301.93 L171.17,308.30 L180.00,313.92 L189.29,318.76 L198.96,322.76 L208.94,325.91 L219.16,328.18 L229.54,329.54 L240.00,330.00 L250.46,329.54 L260.84,328.18 L271.06,325.91 L281.04,322.76 L290.71,318.76 L300.00,313.92 L308.83,308.30 L317.13,301.93 L324.85,294.85 L331.93,287.13 L338.30,278.83 L343.92,270.00 L348.76,260.71 L352.76,251.04 L355.91,241.06 L358.18,230.84 L359.54,220.46 L360.00,210.00" fill="none" stroke="#CCCCCC" stroke-width="1"/>
<path d="M420.00,313.92 L419.54,303.46 L418.18,293.09 L415.91,282.86 L412.76,272.88 L408.76,263.21 L403.92,253.92 L398.30,245.09 L391.93,236.79 L384.85,229.07 L377.13,222.00 L368.83,215.62 L360.00,210.00 L350.71,205.17 L341.04,201.16 L331.06,198.01 L320.84,195.75 L310.46,194.38 L300.00,193.92 L289.54,194.38 L279.16,195.75 L268.94,198.01 L258.96,201.16 L249.29,205.17 L240.00,210.00 L231.17,215.62 L222.87,222.00 L215.15,229.07 L208.07,236.79 L201.70,245.09 L196.08,253.92 L191.24,263.21 L187.24,272.88 L184.09,282.86 L181.82,293.09 L180.46,303.46 L180.00,313.92 L180.46,324.38 L181.82,334.76 L184.09,344.98 L187.24,354.97 L191.24,364.64 L196.08,373.92 L201.70,382.75 L208.07,391.06 L215.15,398.78 L222.87,405.85 L231.17,412.22 L240.00,417.85 L249.29,422.68 L258.96,426.69 L268.94,429.83 L279.16,432.10 L289.54,433.47 L300.00,433.92 L310.46,433.47 L320.84,432.10 L331.06,429.83 L341.04,426.69 L350.71,422.68 L360.00,417.85 L368.83,412.22 L377.13,405.85 L384.85,398.78 L391.93,391.06 L398.30,382.75 L403.92,373.92 L408.76,364.64 L412.76,354.97 L415.91,344.98 L418.18,334.76 L419.54,324.38 L420.00,313.92" fill="none" stroke="#CCCCCC" stroke-width="1"/>
<text x="300.0" y="317.9" font-size="14" fill="#999999" text-anchor="middle">4</text>
<path d="M540.00,313.92 L539.54,303.46 L538.18,293.09 L535.91,282.86 L532.76,272.88 L528.76,263.21 L523.92,253.92 L518.30,245.09 L511.93,236.79 L504.85,229.07 L497.13,222.00 L488.83,215.62 L480.00,210.00 L470.71,205.17 L461.04,201.16 L451.06,198.01 L440.84,195.75 L430.46,194.38 L420.00,193.92 L409.54,194.38 L399.16,195.75 L388.94,198.01 L378.96,201.16 L369.29,205.17 L360.00,210.00 L351.17,215.62 L342.87,222.00 L335.15,229.07 L328.07,236.79 L321.70,245.09 L316.08,253.92 L311.24,263.21 L307.24,272.88 L304.09,282.86 L301.82,293.09 L300.46,303.46 L300.00,313.92 L300.46,324.38 L301.82,334.76 L304.09,344.98 L307.24,354.97 L311.24,364.64 L316.08,373.92 L321.70,382.75 L328.07,391.06 L335.15,398.78 L342.87,405.85 L351.17,412.22 L360.00,417.85 L369.29,422.68 L378.96,426.69 L388.94,429.83 L399.16,432.10 L409.54,433.47 L420.00,433.92 L430.46,433.47 L440.84,432.10 L451.06,429.83 L461.04,426.69 L470.71,422.68 L480.00,417.85 L488.83,412.22 L497.13,405.85 L504.85,398.78 L511.93,391.06 L518.30,382.75 L523.92,373.92 L528.76,364.64 L532.76,354.97 L535.91,344.98 L538.18,334.76 L539.54,324.38 L540.00,313.92" fill="none" stroke="#CCCCCC" stroke-width="1"/>
<text x="420.0" y="317.9" font-size="14" fill="#999999" text-anchor="middle">5</text>
<path d="M600.00,210.00 L599.54,199.54 L598.18,189.16 L595.91,178.94 L592.76,168.96 L588.76,159.29 L583.92,150.00 L578.30,141.17 L571.93,132.87 L564.85,125.15 L557.13,118.07 L548.83,111.70 L540.00,106.08 L530.71,101.24 L521.04,97.24 L511.06,94.09 L500.84,91.82 L490.46,90.46 L480.00,90.00 L469.54,90.46 L459.16,91.82 L448.94,94.09 L438.96,97.24 L429.29,101.24 L420.00,106.08 L411.17,111.70 L402.87,118.07 L395.15,125.15 L388.07,132.87 L381.70,141.17 L376.08,150.00 L371.24,159.29 L367.24,168.96 L364.09,178.94 L361.82,189.16 L360.46,199.54 L360.00,210.00 L360.46,220.46 L361.82,230.84 L364.09,241.06 L367.24,251.04 L371.24,260.71 L376.08,270.00 L381.70,278.83 L388.07,287.13 L395.15,294.85 L402.87,301.93 L411.17,308.30 L420.00,313.92 L429.29,318.76 L438.96,322.76 L448.94,325.91 L459.16,328.18 L469.54,329.54 L480.00,330.00 L490.46,329.54 L500.84,328.18 L511.06,325.91 L521.04,322.76 L530.71,318.76 L540.00,313.92 L548.83,308.30 L557.13,301.93 L564.85,294.85 L571.93,287.13 L578.30,278.83 L583.92,270.00 L588.76,260.71 L592.76,251.04 L595.91,241.06 L598.18,230.84 L599.54,220.46 L600.00,210.00" fill="none" stroke="#CCCCCC" stroke-width="1"/>
<path d="M540.00,106.08 L539.54,95.62 L538.18,85.24 L535.91,75.02 L532.76,65.03 L528.76,55.36 L523.92,46.08 L518.30,37.25 L511.93,28.94 L504.85,21.22 L497.13,14.15 L488.83,7.78 L480.00,2.15 L470.71,-2.68 L461.04,-6.69 L451.06,-9.83 L440.84,-12.10 L430.46,-13.47 L420.00,-13.92 L409.54,-13.47 L399.16,-12.10 L388.94,-9.83 L378.96,-6.69 L369.29,-2.68 L360.00,2.15 L351.17,7.78 L342.87,14.15 L335.15,21.22 L328.07,28.94 L321.70,37.25 L316.08,46.08 L311.24,55.36 L307.24,65.03 L304.09,75.02 L301.82,85.24 L300.46,95.62 L300.00,106.08 L300.46,116.54 L301.82,126.91 L304.09,137.14 L307.24,147.12 L311.24,156.79 L316.08,166.08 L321.70,174.91 L328.07,183.21 L335.15,190.93 L342.87,198.00 L351.17,204.38 L360.00,210.00 L369.29,214.83 L378.96,218.84 L388.94,221.99 L399.16,224.25 L409.54,225.62 L420.00,226.08 L430.46,225.62 L440.84,224.25 L451.06,221.99 L461.04,218.84 L470.71,214.83 L480.00,210.00 L488.83,204.38 L497.13,198.00 L504.85,190.93 L511.93,183.21 L518.30,174.91 L523.92,166.08 L528.76,156.79 L532.76,147.12 L535.91,137.14 L538.18,126.91 L539.54,116.54 L540.00,106.08" fill="none" stroke="#CCCCCC" stroke-width="1"/>
<text x="420.0" y="110.1" font-size="14" fill="#999999" text-anchor="middle">7</text>
<path d="M420.00,106.08 L419.54,95.62 L418.18,85.24 L415.91,75.02 L412.76,65.03 L408.76,55.36 L403.92,46.08 L398.30,37.25 L391.93,28.94 L384.85,21.22 L377.13,14.15 L368.83,7.78 L360.00,2.15 L350.71,-2.68 L341.04,-6.69 L331.06,-9.83 L320.84,-12.10 L310.46,-13.47 L300.00,-13.92 L289.54,-13.47 L279.16,-12.10 L268.94,-9.83 L258.96,-6.69 L249.29,-2.68 L240.00,2.15 L231.17,7.78 L222.87,14.15 L215.15,21.22 L208.07,28.94 L201.70,37.25 L196.08,46.08 L191.24,55.36 L187.24,65.03 L184.09,75.02 L181.82,85.24 L180.46,95.62 L180.00,106.08 L180.46,116.54 L181.82,126.91 L184.09,137.14 L187.24,147.12 L191.24,156.79 L196.08,166.08 L201.70,174.91 L208.07,183.21 L215.15,190.93 L222.87,198.00 L231.17,204.38 L240.00,210.00 L249.29,214.83 L258.96,218.84 L268.94,221.99 L279.16,224.25 L289.54,225.62 L300.00,226.08 L310.46,225.62 L320.84,224.25 L331.06,221.99 L341.04,218.84 L350.71,214.83 L360.00,210.00 L368.83,204.38 L377.13,198.00 L384.85,190.93 L391.93,183.21 L398.30,174.91 L403.92,166.08 L408.76,156.79 L412.76,147.12 L415.91,137.14 L418.18,126.91 L419.54,116.54 L420.00,106.08" fill="none" stroke="#CCCCCC" stroke-width="1"/>
<text x="300.0" y="110.1" font-size="14" fill="#999999" text-anchor="middle">8</text>
<line x1="240.0" y1="210.0" x2="480.0" y2="210.0" stroke="#C0392B" stroke-width="1.6" stroke-dasharray="6,5"/>
<circle cx="240.0" cy="210.0" r="4" fill="#1A1A1A"/>
<text x="240.0" y="196.0" font-size="16" fill="#1A1A1A" text-anchor="middle">P₃</text>
<circle cx="360.0" cy="210.0" r="4" fill="#1A1A1A"/>
<text x="360.0" y="196.0" font-size="16" fill="#1A1A1A" text-anchor="middle">P₉</text>
<circle cx="480.0" cy="210.0" r="4" fill="#1A1A1A"/>
<text x="480.0" y="196.0" font-size="16" fill="#1A1A1A" text-anchor="middle">P₆</text>
<text x="360.0" y="250.0" font-size="14" fill="#C0392B" text-anchor="middle">P₃・P₉・P₆ は共線 — 三角形は面積ゼロに退化（補題1）</text>
<text x="300.0" y="232.0" font-size="13" fill="#999999" text-anchor="middle">r</text>
<text x="420.0" y="232.0" font-size="13" fill="#999999" text-anchor="middle">r</text>
</svg>