<svg xmlns="http://www.w3.org/2000/svg" viewBox="0 0 900 420" font-family="Noto Serif CJK JP, serif">
<rect width="900" height="420" fill="white"/>
<path d="M234.00,235.00 L233.72,228.55 L232.88,222.15 L231.48,215.85 L229.54,209.69 L227.07,203.73 L224.09,198.00 L220.62,192.56 L216.69,187.43 L212.33,182.67 L207.57,178.31 L202.44,174.38 L197.00,170.91 L191.27,167.93 L185.31,165.46 L179.15,163.52 L172.85,162.12 L166.45,161.28 L160.00,161.00 L153.55,161.28 L147.15,162.12 L140.85,163.52 L134.69,165.46 L128.73,167.93 L123.00,170.91 L117.56,174.38 L112.43,178.31 L107.67,182.67 L103.31,187.43 L99.38,192.56 L95.91,198.00 L92.93,203.73 L90.46,209.69 L88.52,215.85 L87.12,222.15 L86.28,228.55 L86.00,235.00 L86.28,241.45 L87.12,247.85 L88.52,254.15 L90.46,260.31 L92.93,266.27 L95.91,272.00 L99.38,277.44 L103.31,282.57 L107.67,287.33 L112.43,291.69 L117.56,295.62 L123.00,299.09 L128.73,302.07 L134.69,304.54 L140.85,306.48 L147.15,307.88 L153.55,308.72 L160.00,309.00 L166.45,308.72 L172.85,307.88 L179.15,306.48 L185.31,304.54 L191.27,302.07 L197.00,299.09 L202.44,295.62 L207.57,291.69 L212.33,287.33 L216.69,282.57 L220.62,277.44 L224.09,272.00 L227.07,266.27 L229.54,260.31 L231.48,254.15 L232.88,247.85 L233.72,241.45 L234.00,235.00" fill="none" stroke="#CCCCCC" stroke-width="0.9"/>
<path d="M160.00,235.00 L159.72,228.55 L158.88,222.15 L157.48,215.85 L155.54,209.69 L153.07,203.73 L150.09,198.00 L146.62,192.56 L142.69,187.43 L138.33,182.67 L133.57,178.31 L128.44,174.38 L123.00,170.91 L117.27,167.93 L111.31,165.46 L105.15,163.52 L98.85,162.12 L92.45,161.28 L86.00,161.00 L79.55,161.28 L73.15,162.12 L66.85,163.52 L60.69,165.46 L54.73,167.93 L49.00,170.91 L43.56,174.38 L38.43,178.31 L33.67,182.67 L29.31,187.43 L25.38,192.56 L21.91,198.00 L18.93,203.73 L16.46,209.69 L14.52,215.85 L13.12,222.15 L12.28,228.55 L12.00,235.00 L12.28,241.45 L13.12,247.85 L14.52,254.15 L16.46,260.31 L18.93,266.27 L21.91,272.00 L25.38,277.44 L29.31,282.57 L33.67,287.33 L38.43,291.69 L43.56,295.62 L49.00,299.09 L54.73,302.07 L60.69,304.54 L66.85,306.48 L73.15,307.88 L79.55,308.72 L86.00,309.00 L92.45,308.72 L98.85,307.88 L105.15,306.48 L111.31,304.54 L117.27,302.07 L123.00,299.09 L128.44,295.62 L133.57,291.69 L138.33,287.33 L142.69,282.57 L146.62,277.44 L150.09,272.00 L153.07,266.27 L155.54,260.31 L157.48,254.15 L158.88,247.85 L159.72,241.45 L160.00,235.00" fill="none" stroke="#CCCCCC" stroke-width="0.9"/>
<path d="M197.00,299.09 L196.72,292.64 L195.88,286.24 L194.48,279.93 L192.54,273.78 L190.07,267.81 L187.09,262.09 L183.62,256.64 L179.69,251.52 L175.33,246.76 L170.57,242.40 L165.44,238.47 L160.00,235.00 L154.27,232.02 L148.31,229.55 L142.15,227.61 L135.85,226.21 L129.45,225.37 L123.00,225.09 L116.55,225.37 L110.15,226.21 L103.85,227.61 L97.69,229.55 L91.73,232.02 L86.00,235.00 L80.56,238.47 L75.43,242.40 L70.67,246.76 L66.31,251.52 L62.38,256.64 L58.91,262.09 L55.93,267.81 L53.46,273.78 L51.52,279.93 L50.12,286.24 L49.28,292.64 L49.00,299.09 L49.28,305.54 L50.12,311.94 L51.52,318.24 L53.46,324.40 L55.93,330.36 L58.91,336.09 L62.38,341.53 L66.31,346.65 L70.67,351.41 L75.43,355.77 L80.56,359.70 L86.00,363.17 L91.73,366.15 L97.69,368.62 L103.85,370.56 L110.15,371.96 L116.55,372.80 L123.00,373.09 L129.45,372.80 L135.85,371.96 L142.15,370.56 L148.31,368.62 L154.27,366.15 L160.00,363.17 L165.44,359.70 L170.57,355.77 L175.33,351.41 L179.69,346.65 L183.62,341.53 L187.09,336.09 L190.07,330.36 L192.54,324.40 L194.48,318.24 L195.88,311.94 L196.72,305.54 L197.00,299.09" fill="none" stroke="#CCCCCC" stroke-width="0.9"/>
<path d="M271.00,299.09 L270.72,292.64 L269.88,286.24 L268.48,279.93 L266.54,273.78 L264.07,267.81 L261.09,262.09 L257.62,256.64 L253.69,251.52 L249.33,246.76 L244.57,242.40 L239.44,238.47 L234.00,235.00 L228.27,232.02 L222.31,229.55 L216.15,227.61 L209.85,226.21 L203.45,225.37 L197.00,225.09 L190.55,225.37 L184.15,226.21 L177.85,227.61 L171.69,229.55 L165.73,232.02 L160.00,235.00 L154.56,238.47 L149.43,242.40 L144.67,246.76 L140.31,251.52 L136.38,256.64 L132.91,262.09 L129.93,267.81 L127.46,273.78 L125.52,279.93 L124.12,286.24 L123.28,292.64 L123.00,299.09 L123.28,305.54 L124.12,311.94 L125.52,318.24 L127.46,324.40 L129.93,330.36 L132.91,336.09 L136.38,341.53 L140.31,346.65 L144.67,351.41 L149.43,355.77 L154.56,359.70 L160.00,363.17 L165.73,366.15 L171.69,368.62 L177.85,370.56 L184.15,371.96 L190.55,372.80 L197.00,373.09 L203.45,372.80 L209.85,371.96 L216.15,370.56 L222.31,368.62 L228.27,366.15 L234.00,363.17 L239.44,359.70 L244.57,355.77 L249.33,351.41 L253.69,346.65 L257.62,341.53 L261.09,336.09 L264.07,330.36 L266.54,324.40 L268.48,318.24 L269.88,311.94 L270.72,305.54 L271.00,299.09" fill="none" stroke="#CCCCCC" stroke-width="0.9"/>
<path d="M308.00,235.00 L307.72,228.55 L306.88,222.15 L305.48,215.85 L303.54,209.69 L301.07,203.73 L298.09,198.00 L294.62,192.56 L290.69,187.43 L286.33,182.67 L281.57,178.31 L276.44,174.38 L271.00,170.91 L265.27,167.93 L259.31,165.46 L253.15,163.52 L246.85,162.12 L240.45,161.28 L234.00,161.00 L227.55,161.28 L221.15,162.12 L214.85,163.52 L208.69,165.46 L202.73,167.93 L197.00,170.91 L191.56,174.38 L186.43,178.31 L181.67,182.67 L177.31,187.43 L173.38,192.56 L169.91,198.00 L166.93,203.73 L164.46,209.69 L162.52,215.85 L161.12,222.15 L160.28,228.55 L160.00,235.00 L160.28,241.45 L161.12,247.85 L162.52,254.15 L164.46,260.31 L166.93,266.27 L169.91,272.00 L173.38,277.44 L177.31,282.57 L181.67,287.33 L186.43,291.69 L191.56,295.62 L197.00,299.09 L202.73,302.07 L208.69,304.54 L214.85,306.48 L221.15,307.88 L227.55,308.72 L234.00,309.00 L240.45,308.72 L246.85,307.88 L253.15,306.48 L259.31,304.54 L265.27,302.07 L271.00,299.09 L276.44,295.62 L281.57,291.69 L286.33,287.33 L290.69,282.57 L294.62,277.44 L298.09,272.00 L301.07,266.27 L303.54,260.31 L305.48,254.15 L306.88,247.85 L307.72,241.45 L308.00,235.00" fill="none" stroke="#CCCCCC" stroke-width="0.9"/>
<path d="M271.00,170.91 L270.72,164.46 L269.88,158.06 L268.48,151.76 L266.54,145.60 L264.07,139.64 L261.09,133.91 L257.62,128.47 L253.69,123.35 L249.33,118.59 L244.57,114.23 L239.44,110.30 L234.00,106.83 L228.27,103.85 L222.31,101.38 L216.15,99.44 L209.85,98.04 L203.45,97.20 L197.00,96.91 L190.55,97.20 L184.15,98.04 L177.85,99.44 L171.69,101.38 L165.73,103.85 L160.00,106.83 L154.56,110.30 L149.43,114.23 L144.67,118.59 L140.31,123.35 L136.38,128.47 L132.91,133.91 L129.93,139.64 L127.46,145.60 L125.52,151.76 L124.12,158.06 L123.28,164.46 L123.00,170.91 L123.28,177.36 L124.12,183.76 L125.52,190.07 L127.46,196.22 L129.93,202.19 L132.91,207.91 L136.38,213.36 L140.31,218.48 L144.67,223.24 L149.43,227.60 L154.56,231.53 L160.00,235.00 L165.73,237.98 L171.69,240.45 L177.85,242.39 L184.15,243.79 L190.55,244.63 L197.00,244.91 L203.45,244.63 L209.85,243.79 L216.15,242.39 L222.31,240.45 L228.27,237.98 L234.00,235.00 L239.44,231.53 L244.57,227.60 L249.33,223.24 L253.69,218.48 L257.62,213.36 L261.09,207.91 L264.07,202.19 L266.54,196.22 L268.48,190.07 L269.88,183.76 L270.72,177.36 L271.00,170.91" fill="none" stroke="#CCCCCC" stroke-width="0.9"/>
<path d="M197.00,170.91 L196.72,164.46 L195.88,158.06 L194.48,151.76 L192.54,145.60 L190.07,139.64 L187.09,133.91 L183.62,128.47 L179.69,123.35 L175.33,118.59 L170.57,114.23 L165.44,110.30 L160.00,106.83 L154.27,103.85 L148.31,101.38 L142.15,99.44 L135.85,98.04 L129.45,97.20 L123.00,96.91 L116.55,97.20 L110.15,98.04 L103.85,99.44 L97.69,101.38 L91.73,103.85 L86.00,106.83 L80.56,110.30 L75.43,114.23 L70.67,118.59 L66.31,123.35 L62.38,128.47 L58.91,133.91 L55.93,139.64 L53.46,145.60 L51.52,151.76 L50.12,158.06 L49.28,164.46 L49.00,170.91 L49.28,177.36 L50.12,183.76 L51.52,190.07 L53.46,196.22 L55.93,202.19 L58.91,207.91 L62.38,213.36 L66.31,218.48 L70.67,223.24 L75.43,227.60 L80.56,231.53 L86.00,235.00 L91.73,237.98 L97.69,240.45 L103.85,242.39 L110.15,243.79 L116.55,244.63 L123.00,244.91 L129.45,244.63 L135.85,243.79 L142.15,242.39 L148.31,240.45 L154.27,237.98 L160.00,235.00 L165.44,231.53 L170.57,227.60 L175.33,223.24 L179.69,218.48 L183.62,213.36 L187.09,207.91 L190.07,202.19 L192.54,196.22 L194.48,190.07 L195.88,183.76 L196.72,177.36 L197.00,170.91" fill="none" stroke="#CCCCCC" stroke-width="0.9"/>
<circle cx="86.0" cy="235.0" r="2.6" fill="#999999"/>
<text x="86.0" y="251.0" font-size="12" fill="#999999" text-anchor="middle">3</text>
<circle cx="123.0" cy="299.1" r="2.6" fill="#999999"/>
<text x="123.0" y="315.1" font-size="12" fill="#999999" text-anchor="middle">4</text>
<circle cx="197.0" cy="299.1" r="2.6" fill="#999999"/>
<text x="197.0" y="315.1" font-size="12" fill="#999999" text-anchor="middle">5</text>
<circle cx="234.0" cy="235.0" r="2.6" fill="#999999"/>
<text x="234.0" y="251.0" font-size="12" fill="#999999" text-anchor="middle">6</text>
<circle cx="197.0" cy="170.9" r="2.6" fill="#999999"/>
<text x="197.0" y="186.9" font-size="12" fill="#999999" text-anchor="middle">7</text>
<circle cx="123.0" cy="170.9" r="2.6" fill="#999999"/>
<text x="123.0" y="186.9" font-size="12" fill="#999999" text-anchor="middle">8</text>
<line x1="86.0" y1="235.0" x2="234.0" y2="235.0" stroke="#C0392B" stroke-width="1.5" stroke-dasharray="5,4"/>
<circle cx="160.0" cy="235.0" r="3.6" fill="#1A1A1A"/>
<text x="160.0" y="225.0" font-size="13" fill="#1A1A1A" text-anchor="middle">9</text>
<text x="160" y="42" font-size="14" fill="#1A1A1A" text-anchor="middle">(a) 上面投影 — Seed of Life平面図</text>
<text x="160" y="392" font-size="12.5" fill="#999999" text-anchor="middle">369は共線に見える</text>
<circle cx="376.0" cy="285.0" r="2.6" fill="#999999"/>
<text x="376.0" y="301.0" font-size="12" fill="#999999" text-anchor="middle">3</text>
<circle cx="413.0" cy="285.0" r="2.6" fill="#999999"/>
<circle cx="487.0" cy="285.0" r="2.6" fill="#999999"/>
<circle cx="524.0" cy="285.0" r="2.6" fill="#999999"/>
<text x="524.0" y="301.0" font-size="12" fill="#999999" text-anchor="middle">6</text>
<circle cx="487.0" cy="285.0" r="2.6" fill="#999999"/>
<circle cx="413.0" cy="285.0" r="2.6" fill="#999999"/>
<line x1="346.4" y1="285" x2="553.6" y2="285" stroke="#CCCCCC" stroke-width="1"/>
<text x="557.3" y="289" font-size="11" fill="#999999">3〜8</text>
<path d="M376.0,285.0 L450.0,156.8 L524.0,285.0 Z" fill="none" stroke="#1A1A1A" stroke-width="1.8"/>
<circle cx="450.0" cy="156.8" r="3.6" fill="#1A1A1A"/>
<text x="450.0" y="146.8" font-size="13" fill="#1A1A1A" text-anchor="middle">9</text>
<text x="450" y="42" font-size="14" fill="#1A1A1A" text-anchor="middle">(b) 側面投影 — 垂直階層図</text>
<text x="450" y="392" font-size="12.5" fill="#999999" text-anchor="middle">9が上方に見える</text>
<path d="M815.38,222.88 L813.12,219.68 L810.34,216.59 L807.06,213.64 L803.31,210.86 L799.12,208.26 L794.52,205.86 L789.53,203.68 L784.21,201.74 L778.60,200.06 L772.72,198.64 L766.64,197.50 L760.39,196.64 L754.02,196.08 L747.58,195.81 L741.13,195.84 L734.70,196.17 L728.35,196.79 L722.13,197.71 L716.09,198.90 L710.26,200.38 L704.70,202.11 L699.44,204.10 L694.53,206.32 L690.01,208.76 L685.90,211.40 L682.24,214.22 L679.07,217.20 L676.39,220.31 L674.23,223.53 L672.62,226.85 L671.55,230.22 L671.05,233.63 L671.10,237.05 L671.72,240.46 L672.90,243.82 L674.62,247.12 L676.88,250.32 L679.66,253.41 L682.94,256.36 L686.69,259.14 L690.88,261.74 L695.48,264.14 L700.47,266.32 L705.79,268.26 L711.40,269.94 L717.28,271.36 L723.36,272.50 L729.61,273.36 L735.98,273.92 L742.42,274.19 L748.87,274.16 L755.30,273.83 L761.65,273.21 L767.87,272.29 L773.91,271.10 L779.74,269.62 L785.30,267.89 L790.56,265.90 L795.47,263.68 L799.99,261.24 L804.10,258.60 L807.76,255.78 L810.93,252.80 L813.61,249.69 L815.77,246.47 L817.38,243.15 L818.45,239.78 L818.95,236.37 L818.90,232.95 L818.28,229.54 L817.10,226.18 L815.38,222.88" fill="none" stroke="#CCCCCC" stroke-width="0.9"/>
<path d="M745.00,235.00 L742.74,231.80 L739.96,228.71 L736.68,225.76 L732.93,222.98 L728.74,220.37 L724.14,217.98 L719.16,215.80 L713.84,213.86 L708.22,212.18 L702.34,210.76 L696.26,209.62 L690.01,208.76 L683.64,208.20 L677.20,207.93 L670.75,207.96 L664.32,208.29 L657.98,208.91 L651.75,209.82 L645.71,211.02 L639.88,212.49 L634.32,214.23 L629.06,216.22 L624.15,218.44 L619.63,220.88 L615.52,223.52 L611.87,226.34 L608.69,229.32 L606.01,232.43 L603.86,235.65 L602.24,238.96 L601.17,242.34 L600.67,245.75 L600.72,249.17 L601.34,252.58 L602.52,255.94 L604.24,259.24 L606.50,262.44 L609.28,265.53 L612.56,268.48 L616.31,271.26 L620.50,273.86 L625.11,276.26 L630.09,278.44 L635.41,280.37 L641.03,282.06 L646.90,283.48 L652.99,284.62 L659.24,285.47 L665.60,286.04 L672.04,286.31 L678.49,286.28 L684.92,285.95 L691.27,285.33 L697.49,284.41 L703.54,283.21 L709.36,281.74 L714.93,280.01 L720.18,278.02 L725.09,275.80 L729.61,273.36 L733.72,270.72 L737.38,267.90 L740.56,264.92 L743.23,261.81 L745.39,258.58 L747.00,255.27 L748.07,251.90 L748.58,248.49 L748.52,245.07 L747.90,241.66 L746.73,238.30 L745.00,235.00" fill="none" stroke="#CCCCCC" stroke-width="0.9"/>
<path d="M799.99,261.24 L797.73,258.03 L794.95,254.95 L791.68,252.00 L787.93,249.21 L783.73,246.61 L779.13,244.22 L774.15,242.04 L768.83,240.10 L763.21,238.42 L757.34,237.00 L751.25,235.86 L745.00,235.00 L738.63,234.44 L732.20,234.17 L725.74,234.20 L719.32,234.52 L712.97,235.15 L706.75,236.06 L700.70,237.26 L694.87,238.73 L689.31,240.47 L684.06,242.46 L679.15,244.68 L674.62,247.12 L670.52,249.76 L666.86,252.58 L663.68,255.55 L661.00,258.67 L658.85,261.89 L657.23,265.20 L656.17,268.58 L655.66,271.99 L655.72,275.41 L656.33,278.81 L657.51,282.18 L659.24,285.47 L661.50,288.68 L664.28,291.77 L667.55,294.71 L671.30,297.50 L675.49,300.10 L680.10,302.50 L685.08,304.67 L690.40,306.61 L696.02,308.30 L701.89,309.72 L707.98,310.86 L714.23,311.71 L720.60,312.28 L727.03,312.55 L733.49,312.52 L739.91,312.19 L746.26,311.57 L752.48,310.65 L758.53,309.45 L764.36,307.98 L769.92,306.24 L775.17,304.26 L780.08,302.04 L784.61,299.60 L788.71,296.96 L792.37,294.14 L795.55,291.16 L798.23,288.05 L800.38,284.82 L802.00,281.51 L803.06,278.14 L803.57,274.73 L803.51,271.30 L802.89,267.90 L801.72,264.54 L799.99,261.24" fill="none" stroke="#CCCCCC" stroke-width="0.9"/>
<path d="M870.37,249.12 L868.11,245.92 L865.33,242.83 L862.05,239.88 L858.31,237.10 L854.11,234.50 L849.51,232.10 L844.53,229.92 L839.21,227.98 L833.59,226.30 L827.71,224.88 L821.63,223.74 L815.38,222.88 L809.01,222.32 L802.58,222.05 L796.12,222.08 L789.69,222.41 L783.35,223.03 L777.13,223.94 L771.08,225.14 L765.25,226.62 L759.69,228.35 L754.43,230.34 L749.52,232.56 L745.00,235.00 L740.89,237.64 L737.24,240.46 L734.06,243.44 L731.38,246.55 L729.23,249.77 L727.61,253.09 L726.54,256.46 L726.04,259.87 L726.09,263.29 L726.71,266.70 L727.89,270.06 L729.61,273.36 L731.88,276.56 L734.65,279.65 L737.93,282.60 L741.68,285.38 L745.87,287.98 L750.48,290.38 L755.46,292.56 L760.78,294.49 L766.40,296.18 L772.27,297.60 L778.36,298.74 L784.61,299.60 L790.97,300.16 L797.41,300.43 L803.87,300.40 L810.29,300.07 L816.64,299.45 L822.86,298.53 L828.91,297.34 L834.73,295.86 L840.30,294.13 L845.55,292.14 L850.46,289.92 L854.99,287.48 L859.09,284.84 L862.75,282.02 L865.93,279.04 L868.60,275.93 L870.76,272.70 L872.38,269.39 L873.44,266.02 L873.95,262.61 L873.89,259.19 L873.27,255.78 L872.10,252.42 L870.37,249.12" fill="none" stroke="#CCCCCC" stroke-width="0.9"/>
<path d="M885.76,210.76 L883.50,207.56 L880.72,204.47 L877.44,201.52 L873.69,198.74 L869.50,196.14 L864.89,193.74 L859.91,191.56 L854.59,189.63 L848.97,187.94 L843.10,186.52 L837.01,185.38 L830.76,184.53 L824.40,183.96 L817.96,183.69 L811.51,183.72 L805.08,184.05 L798.73,184.67 L792.51,185.59 L786.46,186.79 L780.64,188.26 L775.07,189.99 L769.82,191.98 L764.91,194.20 L760.39,196.64 L756.28,199.28 L752.62,202.10 L749.44,205.08 L746.77,208.19 L744.61,211.42 L743.00,214.73 L741.93,218.10 L741.42,221.51 L741.48,224.93 L742.10,228.34 L743.27,231.70 L745.00,235.00 L747.26,238.20 L750.04,241.29 L753.32,244.24 L757.07,247.02 L761.26,249.63 L765.86,252.02 L770.84,254.20 L776.16,256.14 L781.78,257.82 L787.66,259.24 L793.74,260.38 L799.99,261.24 L806.36,261.80 L812.80,262.07 L819.25,262.04 L825.68,261.71 L832.02,261.09 L838.25,260.18 L844.29,258.98 L850.12,257.51 L855.68,255.77 L860.94,253.78 L865.85,251.56 L870.37,249.12 L874.48,246.48 L878.13,243.66 L881.31,240.68 L883.99,237.57 L886.14,234.35 L887.76,231.04 L888.83,227.66 L889.33,224.25 L889.28,220.83 L888.66,217.42 L887.48,214.06 L885.76,210.76" fill="none" stroke="#CCCCCC" stroke-width="0.9"/>
<path d="M830.76,184.53 L828.50,181.32 L825.72,178.23 L822.45,175.29 L818.70,172.50 L814.51,169.90 L809.90,167.50 L804.92,165.33 L799.60,163.39 L793.98,161.70 L788.11,160.28 L782.02,159.14 L775.77,158.29 L769.40,157.72 L762.97,157.45 L756.51,157.48 L750.09,157.81 L743.74,158.43 L737.52,159.35 L731.47,160.55 L725.64,162.02 L720.08,163.76 L714.83,165.74 L709.92,167.96 L705.39,170.40 L701.29,173.04 L697.63,175.86 L694.45,178.84 L691.77,181.95 L689.62,185.18 L688.00,188.49 L686.94,191.86 L686.43,195.27 L686.49,198.70 L687.11,202.10 L688.28,205.46 L690.01,208.76 L692.27,211.97 L695.05,215.05 L698.32,218.00 L702.07,220.79 L706.27,223.39 L710.87,225.78 L715.85,227.96 L721.17,229.90 L726.79,231.58 L732.66,233.00 L738.75,234.14 L745.00,235.00 L751.37,235.56 L757.80,235.83 L764.26,235.80 L770.68,235.48 L777.03,234.85 L783.25,233.94 L789.30,232.74 L795.13,231.27 L800.69,229.53 L805.94,227.54 L810.85,225.32 L815.38,222.88 L819.48,220.24 L823.14,217.42 L826.32,214.45 L829.00,211.33 L831.15,208.11 L832.77,204.80 L833.83,201.42 L834.34,198.01 L834.28,194.59 L833.67,191.19 L832.49,187.82 L830.76,184.53" fill="none" stroke="#CCCCCC" stroke-width="0.9"/>
<path d="M760.39,196.64 L758.12,193.44 L755.35,190.35 L752.07,187.40 L748.32,184.62 L744.13,182.02 L739.52,179.62 L734.54,177.44 L729.22,175.51 L723.60,173.82 L717.73,172.40 L711.64,171.26 L705.39,170.40 L699.03,169.84 L692.59,169.57 L686.13,169.60 L679.71,169.93 L673.36,170.55 L667.14,171.47 L661.09,172.66 L655.27,174.14 L649.70,175.87 L644.45,177.86 L639.54,180.08 L635.01,182.52 L630.91,185.16 L627.25,187.98 L624.07,190.96 L621.40,194.07 L619.24,197.30 L617.62,200.61 L616.56,203.98 L616.05,207.39 L616.11,210.81 L616.73,214.22 L617.90,217.58 L619.63,220.88 L621.89,224.08 L624.67,227.17 L627.95,230.12 L631.69,232.90 L635.89,235.50 L640.49,237.90 L645.47,240.08 L650.79,242.02 L656.41,243.70 L662.29,245.12 L668.37,246.26 L674.62,247.12 L680.99,247.68 L687.42,247.95 L693.88,247.92 L700.31,247.59 L706.65,246.97 L712.87,246.06 L718.92,244.86 L724.75,243.38 L730.31,241.65 L735.57,239.66 L740.48,237.44 L745.00,235.00 L749.11,232.36 L752.76,229.54 L755.94,226.56 L758.62,223.45 L760.77,220.23 L762.39,216.91 L763.46,213.54 L763.96,210.13 L763.91,206.71 L763.29,203.30 L762.11,199.94 L760.39,196.64" fill="none" stroke="#CCCCCC" stroke-width="0.9"/>
<circle cx="674.6" cy="247.1" r="2.6" fill="#999999"/>
<text x="674.6" y="263.1" font-size="12" fill="#999999" text-anchor="middle">3</text>
<circle cx="729.6" cy="273.4" r="2.6" fill="#999999"/>
<text x="729.6" y="289.4" font-size="12" fill="#999999" text-anchor="middle">4</text>
<circle cx="800.0" cy="261.2" r="2.6" fill="#999999"/>
<text x="800.0" y="277.2" font-size="12" fill="#999999" text-anchor="middle">5</text>
<circle cx="815.4" cy="222.9" r="2.6" fill="#999999"/>
<text x="815.4" y="238.9" font-size="12" fill="#999999" text-anchor="middle">6</text>
<circle cx="760.4" cy="196.6" r="2.6" fill="#999999"/>
<text x="760.4" y="212.6" font-size="12" fill="#999999" text-anchor="middle">7</text>
<circle cx="690.0" cy="208.8" r="2.6" fill="#999999"/>
<text x="690.0" y="224.8" font-size="12" fill="#999999" text-anchor="middle">8</text>
<path d="M674.6,247.1 L745.0,126.3 L815.4,222.9 Z" fill="none" stroke="#1A1A1A" stroke-width="1.8"/>
<circle cx="745.0" cy="126.3" r="3.6" fill="#1A1A1A"/>
<text x="745.0" y="116.3" font-size="13" fill="#1A1A1A" text-anchor="middle">9</text>
<text x="745" y="42" font-size="14" fill="#1A1A1A" text-anchor="middle">(c) 斜め投影</text>
<text x="745" y="392" font-size="12.5" fill="#999999" text-anchor="middle">369正三角形が見える</text>
<line x1="305" y1="60" x2="305" y2="360" stroke="#CCCCCC" stroke-width="1"/>
<line x1="595" y1="60" x2="595" y2="360" stroke="#CCCCCC" stroke-width="1"/>
</svg>