<svg xmlns="http://www.w3.org/2000/svg" viewBox="0 0 900 440" font-family="Noto Serif CJK JP, serif">
<rect width="900" height="440" fill="white"/>
<path d="M276.00,200.00 L275.91,198.14 L275.64,196.29 L275.19,194.44 L274.56,192.61 L273.75,190.79 L272.77,188.99 L271.62,187.21 L270.29,185.46 L268.81,183.74 L267.16,182.06 L265.35,180.41 L263.40,178.79 L261.29,177.23 L259.05,175.71 L256.67,174.23 L254.16,172.82 L251.54,171.45 L248.79,170.14 L245.95,168.89 L243.00,167.71 L239.96,166.58 L236.84,165.53 L233.65,164.54 L230.40,163.62 L227.08,162.76 L223.72,161.98 L220.32,161.28 L216.90,160.64 L213.45,160.08 L210.00,159.59 L206.55,159.17 L203.10,158.83 L199.68,158.56 L196.28,158.37 L192.92,158.24 L189.60,158.19 L186.35,158.21 L183.16,158.29 L180.04,158.45 L177.00,158.66 L174.05,158.95 L171.21,159.29 L168.46,159.69 L165.84,160.15 L163.33,160.67 L160.95,161.24 L158.71,161.85 L156.60,162.52 L154.65,163.22 L152.84,163.97 L151.19,164.75 L149.71,165.57 L148.38,166.41 L147.23,167.29 L146.25,168.18 L145.44,169.10 L144.81,170.02 L144.36,170.97 L144.09,171.91 L144.00,172.87 L144.09,173.82 L144.36,174.77 L144.81,175.71 L145.44,176.64 L146.25,177.55 L147.23,178.45 L148.38,179.32 L149.71,180.17 L151.19,180.99 L152.84,181.77 L154.65,182.51 L156.60,183.22 L158.71,183.88 L160.95,184.50 L163.33,185.07 L165.84,185.58 L168.46,186.04 L171.21,186.45 L174.05,186.79 L177.00,187.07 L180.04,187.29 L183.16,187.44 L186.35,187.53 L189.60,187.55 L192.92,187.49 L196.28,187.37 L199.68,187.17 L203.10,186.90 L206.55,186.56 L210.00,186.15 L213.45,185.66 L216.90,185.09 L220.32,184.46 L223.72,183.75 L227.08,182.97 L230.40,182.12 L233.65,181.20 L236.84,180.21 L239.96,179.15 L243.00,178.03 L245.95,176.84 L248.79,175.59 L251.54,174.29 L254.16,172.92 L256.67,171.50 L259.05,170.03 L261.29,168.51 L263.40,166.94 L265.35,165.33 L267.16,163.68 L268.81,161.99 L270.29,160.27 L271.62,158.52 L272.77,156.74 L273.75,154.94 L274.56,153.13 L275.19,151.29 L275.64,149.45 L275.91,147.59 L276.00,145.74 L275.91,143.88 L275.64,142.02 L275.19,140.18 L274.56,138.35 L273.75,136.53 L272.77,134.73 L271.62,132.95 L270.29,131.20 L268.81,129.48 L267.16,127.79 L265.35,126.14 L263.40,124.53 L261.29,122.96 L259.05,121.44 L256.67,119.97 L254.16,118.55 L251.54,117.19 L248.79,115.88 L245.95,114.63 L243.00,113.44 L239.96,112.32 L236.84,111.26 L233.65,110.27 L230.40,109.35 L227.08,108.50 L223.72,107.72 L220.32,107.01 L216.90,106.38 L213.45,105.81 L210.00,105.32 L206.55,104.91 L203.10,104.57 L199.68,104.30 L196.28,104.10 L192.92,103.98 L189.60,103.93 L186.35,103.94 L183.16,104.03 L180.04,104.18 L177.00,104.40 L174.05,104.68 L171.21,105.03 L168.46,105.43 L165.84,105.89 L163.33,106.40 L160.95,106.97 L158.71,107.59 L156.60,108.25 L154.65,108.96 L152.84,109.70 L151.19,110.49 L149.71,111.30 L148.38,112.15 L147.23,113.02 L146.25,113.92 L145.44,114.83 L144.81,115.76 L144.36,116.70 L144.09,117.65 L144.00,118.60 L144.09,119.56 L144.36,120.50 L144.81,121.45 L145.44,122.38 L146.25,123.29 L147.23,124.19 L148.38,125.06 L149.71,125.90 L151.19,126.72 L152.84,127.50 L154.65,128.25 L156.60,128.96 L158.71,129.62 L160.95,130.23 L163.33,130.80 L165.84,131.32 L168.46,131.78 L171.21,132.18 L174.05,132.52 L177.00,132.81 L180.04,133.03 L183.16,133.18 L186.35,133.26 L189.60,133.28 L192.92,133.23 L196.28,133.10 L199.68,132.91 L203.10,132.64 L206.55,132.30 L210.00,131.88 L213.45,131.39 L216.90,130.83 L220.32,130.19 L223.72,129.49 L227.08,128.71 L230.40,127.85 L233.65,126.93 L236.84,125.94 L239.96,124.89 L243.00,123.76 L245.95,122.58 L248.79,121.33 L251.54,120.02 L254.16,118.66 L256.67,117.24 L259.05,115.76 L261.29,114.24 L263.40,112.68 L265.35,111.07 L267.16,109.42 L268.81,107.73 L270.29,106.01 L271.62,104.26 L272.77,102.48 L273.75,100.68 L274.56,98.86 L275.19,97.03 L275.64,95.18 L275.91,93.33 L276.00,91.47" fill="none" stroke="#1A1A1A" stroke-width="1.6"/>
<circle cx="152.8" cy="213.4" r="3.4" fill="#1A1A1A"/>
<text x="152.8" y="230.4" font-size="13" fill="#1A1A1A" text-anchor="middle">3</text>
<circle cx="267.2" cy="213.4" r="3.4" fill="#1A1A1A"/>
<text x="267.2" y="230.4" font-size="13" fill="#1A1A1A" text-anchor="middle">6</text>
<circle cx="210.0" cy="173.2" r="3.4" fill="#1A1A1A"/>
<text x="210.0" y="190.2" font-size="13" fill="#1A1A1A" text-anchor="middle">9</text>
<text x="210" y="46" font-size="14" fill="#1A1A1A" text-anchor="middle">立体：螺旋（周回＝非恒等な変換）</text>
<circle cx="210" cy="358" r="34" fill="none" stroke="#999999" stroke-width="1.4"/>
<text x="210" y="416" font-size="12.5" fill="#999999" text-anchor="middle">真上投影：円環に見える（3.4）</text>
<line x1="210" y1="268" x2="210" y2="318" stroke="#CCCCCC" stroke-width="1" stroke-dasharray="3,4"/>
<path d="M517.4,315.0 L630.0,120.0 L742.6,315.0 Z" fill="none" stroke="#1A1A1A" stroke-width="1.8"/>
<circle cx="517.4" cy="315.0" r="4.2" fill="#1A1A1A"/>
<text x="505.4" y="337.0" font-size="14" fill="#1A1A1A" text-anchor="end">3　生存ゲーム演算</text>
<circle cx="742.6" cy="315.0" r="4.2" fill="#1A1A1A"/>
<text x="754.6" y="337.0" font-size="14" fill="#1A1A1A" text-anchor="start">6　ゼロポイント（空）</text>
<circle cx="630.0" cy="120.0" r="4.2" fill="#1A1A1A"/>
<text x="630.0" y="106.0" font-size="14" fill="#1A1A1A" text-anchor="middle">9　ソース俯瞰</text>
<text x="630.0" y="341.0" font-size="13" fill="#999999" text-anchor="middle">辺3→6：4（波動）・5（多角統合）</text>
<text x="712.3" y="202.5" font-size="13" fill="#999999" text-anchor="middle">辺6→9：7（情報）・8（法則）</text>
<text x="547.7" y="202.5" font-size="13" fill="#999999" text-anchor="middle">辺9→3：帰還の辺</text>
<text x="630" y="46" font-size="14" fill="#1A1A1A" text-anchor="middle">頂点＝相、辺＝過程（3.1）</text>
</svg>